<?xml version="1.0" encoding="UTF-8"?>
<svg id="Layer_1" data-name="Layer 1" xmlns="http://www.w3.org/2000/svg" viewBox="0 0 110 110">
  <defs>
    <style>
      .cls-1 {
        fill: #9ecccc;
      }

      .cls-2 {
        fill: #008491;
      }
    </style>
  </defs>
  <rect class="cls-2" width="110" height="110" rx="15" ry="15"/>
  <path class="cls-1" d="M90.83,28.29c-4.83,0-9.21-1.42-11.95-3.84-2.74,2.42-7.12,3.84-11.94,3.84s-9.21-1.43-11.94-3.85c-2.73,2.42-7.12,3.85-11.94,3.85s-9.21-1.42-11.95-3.84c-2.74,2.42-7.12,3.84-11.94,3.84-5.21,0-9.91-1.67-12.57-4.46-.76-.8-.73-2.07.07-2.83.8-.76,2.07-.73,2.83.07,1.86,1.95,5.66,3.22,9.68,3.22s7.83-1.26,9.68-3.22c.23-.25.42-.48.56-.72.37-.59,1.01-.94,1.7-.94h0c.69,0,1.33.36,1.7.94.15.23.33.47.57.72,1.85,1.94,5.65,3.21,9.68,3.21s7.81-1.26,9.68-3.22c.23-.24.42-.48.57-.72.37-.59,1.01-.94,1.7-.94s1.33.36,1.7.94c.15.24.34.48.56.71,1.87,1.97,5.66,3.23,9.68,3.23s7.83-1.26,9.69-3.22c.23-.24.42-.48.56-.72.37-.59,1.01-.94,1.7-.94s1.33.36,1.7.94c.15.23.33.47.57.72,1.85,1.94,5.65,3.21,9.68,3.21s7.81-1.26,9.68-3.22c.76-.8,2.03-.83,2.83-.07.8.76.83,2.03.07,2.83-2.66,2.79-7.36,4.46-12.57,4.46ZM103.4,44.6c.76-.8.73-2.07-.07-2.83-.8-.76-2.06-.73-2.83.07-1.86,1.95-5.66,3.22-9.68,3.22s-7.83-1.26-9.68-3.21c-.24-.25-.42-.49-.57-.72-.37-.59-1.01-.94-1.7-.94s-1.33.36-1.7.94c-.15.23-.33.47-.56.72-1.86,1.95-5.66,3.22-9.69,3.22s-7.81-1.26-9.68-3.23c-.22-.23-.41-.46-.56-.71-.37-.59-1.01-.94-1.7-.94s-1.33.36-1.7.94c-.15.24-.34.48-.57.72-1.86,1.95-5.66,3.22-9.68,3.22s-7.83-1.26-9.68-3.21c-.24-.25-.42-.49-.57-.72-.36-.59-1.01-.94-1.7-.94h0c-.69,0-1.33.36-1.7.94-.15.23-.33.47-.56.72-1.86,1.95-5.66,3.22-9.68,3.22s-7.81-1.26-9.68-3.22c-.76-.8-2.03-.83-2.83-.07-.8.76-.83,2.03-.07,2.83,2.66,2.79,7.36,4.46,12.57,4.46,4.83,0,9.21-1.42,11.94-3.84,2.73,2.42,7.12,3.84,11.95,3.84s9.22-1.43,11.94-3.85c2.73,2.42,7.11,3.85,11.94,3.85s9.21-1.42,11.94-3.84c2.73,2.42,7.12,3.84,11.95,3.84,5.21,0,9.91-1.67,12.57-4.46ZM103.4,65.36c.76-.8.73-2.07-.07-2.83-.8-.76-2.06-.73-2.83.07-1.86,1.95-5.66,3.22-9.68,3.22s-7.83-1.26-9.68-3.21c-.24-.25-.42-.49-.57-.72-.37-.59-1.01-.94-1.7-.94s-1.33.36-1.7.94c-.15.23-.33.47-.56.72-1.86,1.95-5.66,3.22-9.69,3.22s-7.81-1.26-9.68-3.23c-.22-.23-.41-.46-.56-.71-.37-.59-1.01-.94-1.7-.94s-1.33.36-1.7.94c-.15.24-.34.48-.57.72-1.86,1.95-5.66,3.22-9.68,3.22s-7.83-1.26-9.68-3.21c-.24-.25-.42-.49-.57-.72-.36-.59-1.01-.94-1.7-.94h0c-.69,0-1.33.36-1.7.94-.15.23-.33.47-.56.72-1.86,1.95-5.66,3.22-9.68,3.22s-7.81-1.26-9.68-3.22c-.76-.8-2.03-.83-2.83-.07-.8.76-.83,2.03-.07,2.83,2.66,2.79,7.36,4.46,12.57,4.46,4.83,0,9.21-1.42,11.94-3.84,2.73,2.42,7.12,3.84,11.95,3.84s9.22-1.43,11.94-3.85c2.73,2.42,7.11,3.85,11.94,3.85s9.21-1.42,11.94-3.84c2.73,2.42,7.12,3.84,11.95,3.84,5.21,0,9.91-1.67,12.57-4.46ZM103.4,86.13c.76-.8.73-2.07-.07-2.83-.8-.76-2.06-.73-2.83.07-1.86,1.95-5.66,3.22-9.68,3.22s-7.83-1.26-9.68-3.21c-.24-.25-.42-.49-.57-.72-.37-.59-1.01-.94-1.7-.94s-1.33.36-1.7.94c-.15.23-.33.47-.56.72-1.86,1.95-5.66,3.22-9.69,3.22s-7.81-1.26-9.68-3.23c-.22-.23-.41-.46-.56-.71-.37-.59-1.01-.94-1.7-.94s-1.33.36-1.7.94c-.15.24-.34.48-.57.72-1.86,1.95-5.66,3.22-9.68,3.22s-7.83-1.26-9.68-3.21c-.24-.25-.42-.49-.57-.72-.36-.59-1.01-.94-1.7-.94h0c-.69,0-1.33.36-1.7.94-.15.23-.33.47-.56.72-1.86,1.95-5.66,3.22-9.68,3.22s-7.81-1.26-9.68-3.22c-.76-.8-2.03-.83-2.83-.07-.8.76-.83,2.03-.07,2.83,2.66,2.79,7.36,4.46,12.57,4.46,4.83,0,9.21-1.42,11.94-3.84,2.73,2.42,7.12,3.84,11.95,3.84s9.22-1.43,11.94-3.85c2.73,2.42,7.11,3.85,11.94,3.85s9.21-1.42,11.94-3.84c2.73,2.42,7.12,3.84,11.95,3.84,5.21,0,9.91-1.67,12.57-4.46Z"/>
</svg>