<?xml version="1.0" encoding="UTF-8"?>
<svg id="Layer_1" data-name="Layer 1" xmlns="http://www.w3.org/2000/svg" viewBox="0 0 100 100">
  <defs>
    <style>
      .cls-1 {
        fill: #e2f4fb;
      }
    </style>
  </defs>
  <path class="cls-1" d="M91.39,62.89c0,6.41-5.01,11.64-11.33,11.98v.02H20.48v-.1c-6.69-.79-11.87-6.48-11.87-13.38,0-7.45,6.04-13.48,13.49-13.48h.01c.15-6.38,5.37-11.5,11.78-11.5,1.07,0,2.11.14,3.09.41-.03-.36-.05-.72-.05-1.08,0-5.89,4.77-10.65,10.65-10.65s10.55,4.66,10.65,10.46c1.67-.72,3.51-1.12,5.44-1.12,7.62,0,13.8,6.18,13.8,13.8,0,.98-.1,1.93-.29,2.85.72-.14,1.46-.21,2.22-.21,6.63,0,12,5.38,12,12Z"/>
</svg>