<?xml version="1.0" encoding="UTF-8"?>
<svg id="Layer_1" data-name="Layer 1" xmlns="http://www.w3.org/2000/svg" viewBox="0 0 100 100">
  <defs>
    <style>
      .cls-1 {
        fill: #00594d;
      }
    </style>
  </defs>
  <path class="cls-1" d="M5.51,64.44c5.38,1.56,10.28,3.65,14.65,6.3.97.59,2.15-.26,1.9-1.36-1.99-8.57-2.46-17.71-1.44-27.43.09-.88,1.19-1.26,1.8-.62,6.18,6.42,11.01,13.76,14.43,22.06.45,1.09,1.97,1.04,2.36-.07,1.61-4.56,3.85-9.05,6.61-13.5.5-.8,1.71-.61,1.93.3,2.83,11.63.46,24.38-5.21,37.84-.43,1.02-1.02,1.99-1.82,2.76-2.18,2.07-5.3,2.68-9.36,1.88-1.28-.25-2.49-.82-3.53-1.62-8.62-6.59-16.45-14.92-23.49-24.93-.57-.81.21-1.89,1.16-1.61ZM50.8,18.53c.35,12.24,2.27,23.5,5.82,33.76.43,1.24,1.12,2.38,2.05,3.3,2.93,2.91,5.88,4.13,8.84,3.6,1.09-.19,2.12-.68,3.04-1.29,12.16-8.09,21.17-17.41,25.24-28.66.32-.88-.59-1.7-1.45-1.31-4.76,2.18-9.11,4.69-12.97,7.6-.94.71-2.23-.1-2.01-1.25,1.73-8.81,1.76-17.59.15-26.36-.16-.87-1.28-1.15-1.84-.47-6.22,7.53-10.88,15.42-13.95,23.66-.4,1.06-1.85,1.1-2.33.08-2.18-4.63-5.1-9.07-8.73-13.34-.64-.75-1.89-.29-1.86.7Z"/>
</svg>