<?xml version="1.0" encoding="UTF-8"?>
<svg id="Layer_1" data-name="Layer 1" xmlns="http://www.w3.org/2000/svg" viewBox="0 0 100 100">
  <defs>
    <style>
      .cls-1 {
        fill: #f0c3b6;
      }
    </style>
  </defs>
  <path class="cls-1" d="M62.91,35.01c-11.78-9.06-14.67,9.95-43.16,14.77-5.38.91-9.77,4.94-10.95,10.27-4.79,21.5,7.95,36.91,31.55,33.73,7.88-1.06,15.9-6.48,16.6-14.41,2.1-23.68,16.47-36.27,5.96-44.36ZM48.73,79.32c-.57,6.45-2.42,10.63-8.78,11.49-1.92.26-3.8.39-5.58.39h-.01c-8.24,0-14.78-2.72-18.91-7.86-4.42-5.52-5.67-9.93-4.35-19.14.82-5.64,2.42-7.76,6.62-8.47,14.61-2.48,31.92,13.35,31.01,23.59Z"/>
  <path class="cls-1" d="M26,66.49c-2.43-.93-5.02,1.02-4.75,3.62.26,2.55.82,5.49,2.01,6.97,2.73,3.4,7.54,4.12,11.11,4.12h.03c2.33,0,3.97-2.31,3.28-4.54-1.72-5.56-6.18-8.09-11.68-10.17Z"/>
  <path class="cls-1" d="M90.5,18.68c-6.13-3.04-9.97-3.67-13.22-11.3-1.02-2.41-5.38-1.95-5.78.63-1.24,7.87-4.74,14.73-8.16,19.77-.4.59-.23,1.39.38,1.75.74.43,1.49.93,2.24,1.51,1.17.91,2.13,1.85,2.91,2.83.48.61,1.37.63,1.9.06,4.09-4.42,12.42-6.49,19.64-9.77,2.34-1.05,2.39-4.35.09-5.48Z"/>
</svg>