<?xml version="1.0" encoding="UTF-8"?>
<svg id="Layer_1" data-name="Layer 1" xmlns="http://www.w3.org/2000/svg" viewBox="0 0 110 110">
  <defs>
    <style>
      .cls-1 {
        fill: #abd37a;
      }

      .cls-2 {
        fill: #089146;
      }
    </style>
  </defs>
  <rect class="cls-1" width="110" height="110" rx="15" ry="15"/>
  <path class="cls-2" d="M74.55,56.5c-1.35,4.08-5.29,8.35-9.16,10.04-.63.27-1.3-.27-1.22-.95,1.1-9.82-1.39-19.63-7.72-29.44-.07-.12-.26-.05-.23.09,2.47,11.36,3.18,21.86,1.18,31.06-.09.43-.49.74-.93.71-.63-.04-1.25-.11-1.88-.22-10.64-1.75-14.33-11.23-12.46-26.89,1.17-9.11.58-18.16-3.59-27.12-.38-.81.3-1.7,1.18-1.59,19.31,2.52,31.52,13.19,35.37,33.47.68,3.6.62,7.35-.54,10.84ZM91.26,44.73c-.26-.54-1.01-.6-1.34-.11-5.48,8.21-12.24,17.48-20.42,24.03-2.35,1.88-4.35,4.19-5.6,6.92-2.85,6.23-2.36,11.12,1.15,15.1.3.34.81.39,1.18.13,7.48-5.16,13.6-12.24,18.94-20.44.06-.1.22-.03.2.08-1.51,9.71-5.4,17.52-11.72,23.43-.55.51-.25,1.45.49,1.55,14.78,1.98,33.81-14.68,17.1-50.69ZM28.25,77.75c9.93,5.08,19.5,8.39,28.63,9.44.43.05.85-.22.97-.63,1.48-4.94.23-9.64-3.45-13.36-2.56-2.58-5.96-4.15-9.55-4.7-18.33-2.82-21.23-3.74-31.85-9.18-.33-.17-.73.06-.74.42-.54,18.15,7.34,34.69,24.52,37.68,1.74.31,3.52.4,5.29.4,5.94,0,8.52-.73,11.15-3.55.49-.53.22-1.39-.5-1.51-9.3-1.5-18.45-7.66-24.68-14.75-.12-.14.05-.35.21-.26Z"/>
</svg>