<?xml version="1.0" encoding="UTF-8"?>
<svg id="Layer_1" data-name="Layer 1" xmlns="http://www.w3.org/2000/svg" viewBox="0 0 100 100">
  <defs>
    <style>
      .cls-1 {
        fill: #5c462c;
      }
    </style>
  </defs>
  <path class="cls-1" d="M13.47,22.43c2.01,1.77,3.86,4.45,5.34,7.15.54.98,2.01.63,2.06-.49.14-3.33.62-7.02,1.56-10.08,1.52-4.95,8.5-5.25,10.46-.45,1.36,3.32,2.27,7.58,2.38,11.57.03,1.11,1.51,1.46,2.05.49,1.44-2.59,3.08-5.21,5.1-7.01,2.34-2.09,6.05-.18,5.65,2.94-.95,7.37-3.2,13.89-7.2,19.25-5.95,8-17.63,8.28-23.87.5-4.83-6.02-7.85-12.94-9.16-20.7-.53-3.14,3.22-5.27,5.62-3.17ZM51.94,13.6c1.31,7.77,4.34,14.68,9.16,20.7,6.24,7.78,17.92,7.51,23.87-.5,3.99-5.37,6.25-11.88,7.2-19.25.4-3.11-3.31-5.03-5.65-2.94-2.01,1.8-3.66,4.42-5.1,7.01-.54.97-2.02.62-2.05-.49-.11-3.99-1.02-8.25-2.38-11.57-1.96-4.8-8.94-4.51-10.46.45-.94,3.07-1.43,6.76-1.56,10.08-.05,1.12-1.52,1.48-2.06.49-1.48-2.7-3.33-5.39-5.34-7.15-2.4-2.1-6.15.02-5.62,3.17ZM7.85,70.5c1.31,7.77,4.34,14.68,9.16,20.7,6.24,7.78,17.92,7.51,23.87-.5,3.99-5.37,6.25-11.88,7.2-19.25.4-3.11-3.31-5.03-5.65-2.94-2.01,1.8-3.66,4.42-5.1,7.01-.54.97-2.02.62-2.05-.49-.11-3.99-1.02-8.25-2.38-11.57-1.96-4.8-8.94-4.51-10.46.45-.94,3.07-1.43,6.76-1.56,10.08-.05,1.12-1.52,1.48-2.06.49-1.48-2.7-3.33-5.39-5.34-7.15-2.4-2.1-6.15.02-5.62,3.17ZM51.94,58.5c1.31,7.77,4.34,14.68,9.16,20.7,6.24,7.78,17.92,7.51,23.87-.5,3.99-5.37,6.25-11.88,7.2-19.25.4-3.11-3.31-5.03-5.65-2.94-2.01,1.8-3.66,4.42-5.1,7.01-.54.97-2.02.62-2.05-.49-.11-3.99-1.02-8.25-2.38-11.57-1.96-4.8-8.94-4.51-10.46.45-.94,3.07-1.43,6.76-1.56,10.08-.05,1.12-1.52,1.48-2.06.49-1.48-2.7-3.33-5.39-5.34-7.15-2.4-2.1-6.15.02-5.62,3.17Z"/>
</svg>